<svg xmlns="http://www.w3.org/2000/svg" viewBox="0 0 100 100">
  <rect width="100" height="100" rx="20" fill="#0a1a0a"/>

  <!-- Question input bar -->
  <rect x="11" y="13" width="78" height="16" rx="5" fill="#1a2e1a"/>
  <rect x="17" y="18" width="38" height="4" rx="2" fill="#4caf50" opacity="0.75"/>
  <rect x="57" y="17" width="2" height="6" rx="1" fill="#4caf50"/>

  <!-- Fork lines from bar to panels -->
  <line x1="50" y1="29" x2="20" y2="40" stroke="#2e5a2e" stroke-width="1.5" stroke-linecap="round"/>
  <line x1="50" y1="29" x2="50" y2="40" stroke="#2e5a2e" stroke-width="1.5" stroke-linecap="round"/>
  <line x1="50" y1="29" x2="80" y2="40" stroke="#2e5a2e" stroke-width="1.5" stroke-linecap="round"/>

  <!-- Panel 1 -->
  <rect x="7"  y="40" width="26" height="48" rx="5" fill="#0e200e"/>
  <rect x="12" y="46" width="16" height="3.5" rx="1.75" fill="#4caf50" opacity="0.85"/>
  <rect x="12" y="53" width="13" height="2.5" rx="1.25" fill="#4caf50" opacity="0.5"/>
  <rect x="12" y="58" width="15" height="2.5" rx="1.25" fill="#4caf50" opacity="0.45"/>
  <rect x="12" y="63" width="10" height="2.5" rx="1.25" fill="#4caf50" opacity="0.4"/>
  <rect x="12" y="68" width="14" height="2.5" rx="1.25" fill="#4caf50" opacity="0.35"/>
  <rect x="12" y="73" width="9"  height="2.5" rx="1.25" fill="#4caf50" opacity="0.3"/>

  <!-- Panel 2 -->
  <rect x="37" y="40" width="26" height="48" rx="5" fill="#0e200e"/>
  <rect x="42" y="46" width="16" height="3.5" rx="1.75" fill="#4caf50" opacity="0.95"/>
  <rect x="42" y="53" width="14" height="2.5" rx="1.25" fill="#4caf50" opacity="0.6"/>
  <rect x="42" y="58" width="11" height="2.5" rx="1.25" fill="#4caf50" opacity="0.55"/>
  <rect x="42" y="63" width="16" height="2.5" rx="1.25" fill="#4caf50" opacity="0.5"/>
  <rect x="42" y="68" width="12" height="2.5" rx="1.25" fill="#4caf50" opacity="0.4"/>
  <rect x="42" y="73" width="8"  height="2.5" rx="1.25" fill="#4caf50" opacity="0.3"/>

  <!-- Panel 3 -->
  <rect x="67" y="40" width="26" height="48" rx="5" fill="#0e200e"/>
  <rect x="72" y="46" width="16" height="3.5" rx="1.75" fill="#4caf50" opacity="0.75"/>
  <rect x="72" y="53" width="12" height="2.5" rx="1.25" fill="#4caf50" opacity="0.5"/>
  <rect x="72" y="58" width="15" height="2.5" rx="1.25" fill="#4caf50" opacity="0.45"/>
  <rect x="72" y="63" width="9"  height="2.5" rx="1.25" fill="#4caf50" opacity="0.4"/>
  <rect x="72" y="68" width="14" height="2.5" rx="1.25" fill="#4caf50" opacity="0.35"/>
  <rect x="72" y="73" width="7"  height="2.5" rx="1.25" fill="#4caf50" opacity="0.3"/>
</svg>
